<mxfile host="Electron" agent="Mozilla/5.0 (Windows NT 10.0; Win64; x64) AppleWebKit/537.36 (KHTML, like Gecko) draw.io/24.7.8 Chrome/128.0.6613.36 Electron/32.0.1 Safari/537.36" version="24.7.8">
  <diagram name="Page-1" id="rpFI-HD5gzP-xepIXSIA">
    <mxGraphModel dx="1103" dy="680" grid="1" gridSize="10" guides="1" tooltips="1" connect="1" arrows="1" fold="1" page="1" pageScale="1" pageWidth="850" pageHeight="1100" math="0" shadow="0">
      <root>
        <mxCell id="0" />
        <mxCell id="1" parent="0" />
        <mxCell id="-RTfot1g7ltpzyd6Tj3k-1" value="" style="rounded=0;whiteSpace=wrap;html=1;" vertex="1" parent="1">
          <mxGeometry x="140" y="190" width="570" height="60" as="geometry" />
        </mxCell>
        <mxCell id="-RTfot1g7ltpzyd6Tj3k-2" value="" style="verticalLabelPosition=bottom;shadow=0;dashed=0;align=center;html=1;verticalAlign=top;strokeWidth=1;shape=mxgraph.mockup.containers.userMale;strokeColor=#666666;strokeColor2=#008cff;" vertex="1" parent="1">
          <mxGeometry x="140" y="190" width="60" height="60" as="geometry" />
        </mxCell>
        <mxCell id="-RTfot1g7ltpzyd6Tj3k-3" value="Voornaam" style="text;html=1;align=center;verticalAlign=middle;whiteSpace=wrap;rounded=0;" vertex="1" parent="1">
          <mxGeometry x="240" y="205" width="60" height="30" as="geometry" />
        </mxCell>
        <mxCell id="-RTfot1g7ltpzyd6Tj3k-4" value="Achternaam" style="text;html=1;align=center;verticalAlign=middle;whiteSpace=wrap;rounded=0;" vertex="1" parent="1">
          <mxGeometry x="320" y="205" width="60" height="30" as="geometry" />
        </mxCell>
        <mxCell id="-RTfot1g7ltpzyd6Tj3k-5" value="500 Punten" style="text;html=1;align=center;verticalAlign=middle;whiteSpace=wrap;rounded=0;" vertex="1" parent="1">
          <mxGeometry x="590" y="205" width="90" height="30" as="geometry" />
        </mxCell>
        <mxCell id="-RTfot1g7ltpzyd6Tj3k-6" value="" style="rounded=0;whiteSpace=wrap;html=1;" vertex="1" parent="1">
          <mxGeometry x="140" y="260" width="570" height="60" as="geometry" />
        </mxCell>
        <mxCell id="-RTfot1g7ltpzyd6Tj3k-7" value="" style="verticalLabelPosition=bottom;shadow=0;dashed=0;align=center;html=1;verticalAlign=top;strokeWidth=1;shape=mxgraph.mockup.containers.userMale;strokeColor=#666666;strokeColor2=#008cff;" vertex="1" parent="1">
          <mxGeometry x="140" y="260" width="60" height="60" as="geometry" />
        </mxCell>
        <mxCell id="-RTfot1g7ltpzyd6Tj3k-8" value="Voornaam" style="text;html=1;align=center;verticalAlign=middle;whiteSpace=wrap;rounded=0;" vertex="1" parent="1">
          <mxGeometry x="240" y="275" width="60" height="30" as="geometry" />
        </mxCell>
        <mxCell id="-RTfot1g7ltpzyd6Tj3k-9" value="Achternaam" style="text;html=1;align=center;verticalAlign=middle;whiteSpace=wrap;rounded=0;" vertex="1" parent="1">
          <mxGeometry x="320" y="275" width="60" height="30" as="geometry" />
        </mxCell>
        <mxCell id="-RTfot1g7ltpzyd6Tj3k-10" value="500 Punten" style="text;html=1;align=center;verticalAlign=middle;whiteSpace=wrap;rounded=0;" vertex="1" parent="1">
          <mxGeometry x="590" y="275" width="90" height="30" as="geometry" />
        </mxCell>
        <mxCell id="-RTfot1g7ltpzyd6Tj3k-11" value="" style="rounded=0;whiteSpace=wrap;html=1;" vertex="1" parent="1">
          <mxGeometry x="140" y="330" width="570" height="60" as="geometry" />
        </mxCell>
        <mxCell id="-RTfot1g7ltpzyd6Tj3k-12" value="" style="verticalLabelPosition=bottom;shadow=0;dashed=0;align=center;html=1;verticalAlign=top;strokeWidth=1;shape=mxgraph.mockup.containers.userMale;strokeColor=#666666;strokeColor2=#008cff;" vertex="1" parent="1">
          <mxGeometry x="140" y="330" width="60" height="60" as="geometry" />
        </mxCell>
        <mxCell id="-RTfot1g7ltpzyd6Tj3k-13" value="Voornaam" style="text;html=1;align=center;verticalAlign=middle;whiteSpace=wrap;rounded=0;" vertex="1" parent="1">
          <mxGeometry x="240" y="345" width="60" height="30" as="geometry" />
        </mxCell>
        <mxCell id="-RTfot1g7ltpzyd6Tj3k-14" value="Achternaam" style="text;html=1;align=center;verticalAlign=middle;whiteSpace=wrap;rounded=0;" vertex="1" parent="1">
          <mxGeometry x="320" y="345" width="60" height="30" as="geometry" />
        </mxCell>
        <mxCell id="-RTfot1g7ltpzyd6Tj3k-15" value="500 Punten" style="text;html=1;align=center;verticalAlign=middle;whiteSpace=wrap;rounded=0;" vertex="1" parent="1">
          <mxGeometry x="590" y="345" width="90" height="30" as="geometry" />
        </mxCell>
        <mxCell id="-RTfot1g7ltpzyd6Tj3k-16" value="" style="rounded=0;whiteSpace=wrap;html=1;" vertex="1" parent="1">
          <mxGeometry x="140" y="400" width="570" height="60" as="geometry" />
        </mxCell>
        <mxCell id="-RTfot1g7ltpzyd6Tj3k-17" value="" style="verticalLabelPosition=bottom;shadow=0;dashed=0;align=center;html=1;verticalAlign=top;strokeWidth=1;shape=mxgraph.mockup.containers.userMale;strokeColor=#666666;strokeColor2=#008cff;" vertex="1" parent="1">
          <mxGeometry x="140" y="400" width="60" height="60" as="geometry" />
        </mxCell>
        <mxCell id="-RTfot1g7ltpzyd6Tj3k-18" value="Voornaam" style="text;html=1;align=center;verticalAlign=middle;whiteSpace=wrap;rounded=0;" vertex="1" parent="1">
          <mxGeometry x="240" y="415" width="60" height="30" as="geometry" />
        </mxCell>
        <mxCell id="-RTfot1g7ltpzyd6Tj3k-19" value="Achternaam" style="text;html=1;align=center;verticalAlign=middle;whiteSpace=wrap;rounded=0;" vertex="1" parent="1">
          <mxGeometry x="320" y="415" width="60" height="30" as="geometry" />
        </mxCell>
        <mxCell id="-RTfot1g7ltpzyd6Tj3k-20" value="500 Punten" style="text;html=1;align=center;verticalAlign=middle;whiteSpace=wrap;rounded=0;" vertex="1" parent="1">
          <mxGeometry x="590" y="415" width="90" height="30" as="geometry" />
        </mxCell>
        <mxCell id="-RTfot1g7ltpzyd6Tj3k-26" value="" style="rounded=0;whiteSpace=wrap;html=1;" vertex="1" parent="1">
          <mxGeometry x="140" y="470" width="570" height="60" as="geometry" />
        </mxCell>
        <mxCell id="-RTfot1g7ltpzyd6Tj3k-27" value="" style="verticalLabelPosition=bottom;shadow=0;dashed=0;align=center;html=1;verticalAlign=top;strokeWidth=1;shape=mxgraph.mockup.containers.userMale;strokeColor=#666666;strokeColor2=#008cff;" vertex="1" parent="1">
          <mxGeometry x="140" y="470" width="60" height="60" as="geometry" />
        </mxCell>
        <mxCell id="-RTfot1g7ltpzyd6Tj3k-28" value="Voornaam" style="text;html=1;align=center;verticalAlign=middle;whiteSpace=wrap;rounded=0;" vertex="1" parent="1">
          <mxGeometry x="240" y="485" width="60" height="30" as="geometry" />
        </mxCell>
        <mxCell id="-RTfot1g7ltpzyd6Tj3k-29" value="Achternaam" style="text;html=1;align=center;verticalAlign=middle;whiteSpace=wrap;rounded=0;" vertex="1" parent="1">
          <mxGeometry x="320" y="485" width="60" height="30" as="geometry" />
        </mxCell>
        <mxCell id="-RTfot1g7ltpzyd6Tj3k-30" value="500 Punten" style="text;html=1;align=center;verticalAlign=middle;whiteSpace=wrap;rounded=0;" vertex="1" parent="1">
          <mxGeometry x="590" y="485" width="90" height="30" as="geometry" />
        </mxCell>
        <mxCell id="-RTfot1g7ltpzyd6Tj3k-31" value="Terug naar het hoofdscherm" style="strokeWidth=1;shadow=0;dashed=0;align=center;html=1;shape=mxgraph.mockup.buttons.button;strokeColor=#666666;fontColor=#ffffff;mainText=;buttonStyle=round;fontSize=17;fontStyle=1;fillColor=#CCCCCC;whiteSpace=wrap;" vertex="1" parent="1">
          <mxGeometry x="140" y="130" width="270" height="40" as="geometry" />
        </mxCell>
      </root>
    </mxGraphModel>
  </diagram>
</mxfile>
